<?xml version="1.0" encoding="iso-8859-1"?>
<!-- Uploaded to: SVG Repo, www.svgrepo.com, Generator: SVG Repo Mixer Tools -->
<svg fill="#000000" version="1.1" id="Capa_1" xmlns="http://www.w3.org/2000/svg" xmlns:xlink="http://www.w3.org/1999/xlink" 
	 viewBox="0 0 512 512" xml:space="preserve">
<g>
	<g>
		<path d="M168.26,439.188h143.516V247.726H168.26V439.188z M183.918,263.383h112.201v17.93H183.918V263.383z M183.918,296.97h8.629
			v14.614h15.657V296.97h87.915v126.561H183.918V296.97z"/>
	</g>
</g>
<g>
	<g>
		<rect x="281.272" y="455.633" width="15.657" height="15.658"/>
	</g>
</g>
<g>
	<g>
		<rect x="255.176" y="455.633" width="17.745" height="15.658"/>
	</g>
</g>
<g>
	<g>
		<rect x="231.168" y="455.633" width="15.657" height="15.658"/>
	</g>
</g>
<g>
	<g>
		<rect x="208.203" y="455.633" width="15.658" height="15.658"/>
	</g>
</g>
<g>
	<g>
		<rect x="184.195" y="455.633" width="15.657" height="15.658"/>
	</g>
</g>
<g>
	<g>
		<path d="M335.912,167.815h-39.956c-17.536,0-31.802,14.266-31.802,31.802s14.266,31.802,31.802,31.802h87.902
			c13.309,0,24.137,10.827,24.137,24.135v63.93c0,35.34-28.751,64.091-64.091,64.091h-0.001V239.56h-15.658v216.073h-16.701v15.658
			h16.701v0.356c0,13.386-10.976,24.696-23.966,24.696H175.757c-13.298,0-24.964-11.541-24.964-24.696v-0.356h16.701v-15.658
			h-16.701V166.491h73.068v-15.657h-73.068v-7.307h177.452v15.657h15.657V127.87H135.135v343.777
			c0,21.873,18.602,40.354,40.622,40.354h128.521c21.478,0,39.624-18.48,39.624-40.354V446.8c44.648-4.051,79.75-41.675,79.75-87.36
			V255.554C423.653,207.175,384.293,167.815,335.912,167.815z M383.859,215.761h-87.902c-8.902,0-16.145-7.242-16.145-16.145
			c0-8.902,7.243-16.145,16.145-16.145h39.956c26.074,0,48.958,13.914,61.617,34.708
			C393.265,216.616,388.659,215.761,383.859,215.761z M343.902,431.07v-31.836h0.001c25.962,0,49.059-12.476,63.63-31.741
			C403.809,400.836,377.255,427.372,343.902,431.07z"/>
	</g>
</g>
<g>
	<g>
		<rect x="296.929" y="192.587" width="14.614" height="15.657"/>
	</g>
</g>
<g>
	<g>
		<rect x="231.168" y="150.834" width="33.403" height="15.657"/>
	</g>
</g>
<g>
	<g>
		<rect x="246.825" y="399.266" width="41.753" height="15.657"/>
	</g>
</g>
<g>
	<g>
		<path d="M152.115,23.973h-39.956c-13.129,0-23.811,10.682-23.811,23.811s10.681,23.812,23.811,23.812h39.955V55.938h-39.955
			c-4.496,0-8.153-3.658-8.153-8.154c0-4.496,3.658-8.153,8.153-8.153h39.956c4.497,0,8.153,3.658,8.153,8.153v71.92h15.657v-71.92
			C175.926,34.654,165.245,23.973,152.115,23.973z"/>
	</g>
</g>
<g>
	<g>
		<path d="M259.996,71.92h-55.938c-10.927,0-19.815,8.889-19.815,19.815v27.968h15.658V91.736H199.9
			c0-2.292,1.865-4.158,4.158-4.158h55.938c2.292,0,4.158,1.865,4.158,4.158c0,2.292-1.865,4.158-4.158,4.158h-51.944v15.657h7.458
			v7.968h15.657v-7.968h28.828c10.927,0,19.815-8.889,19.815-19.815C279.809,80.81,270.922,71.92,259.996,71.92z"/>
	</g>
</g>
<g>
	<g>
		<path d="M271.983,0h-31.964c-13.129,0-23.811,10.682-23.811,23.811v39.956h15.657V23.811h-0.001c0-4.496,3.658-8.153,8.153-8.153
			h31.964c4.496,0,8.153,3.658,8.153,8.153s-3.658,8.154-8.153,8.154h-31.966v15.657h31.966c13.129,0,23.811-10.682,23.811-23.812
			C295.794,10.682,285.112,0,271.983,0z"/>
	</g>
</g>
<g>
	<g>
		<path d="M367.877,31.964h-39.956c-17.536,0-31.802,14.266-31.802,31.802v55.938h15.657V63.767h0
			c0-8.902,7.242-16.145,16.145-16.145h39.956c8.902,0,16.145,7.242,16.145,16.145c0,8.902-7.243,16.145-16.145,16.145h-47.947
			v15.657h47.947c17.536,0,31.802-14.267,31.802-31.802S385.413,31.964,367.877,31.964z"/>
	</g>
</g>
</svg>